<svg width="22" height="22" viewBox="0 0 22 22" fill="none" xmlns="http://www.w3.org/2000/svg">
<path fill-rule="evenodd" clip-rule="evenodd" d="M11.9091 1.09087C11.407 0.588769 10.593 0.588769 10.0909 1.09087L1.09086 10.0909L0.983899 10.212C0.591725 10.7164 0.627377 11.4457 1.09086 11.9091L10.0909 20.9091L10.212 21.0161C10.7164 21.4083 11.4457 21.3726 11.9091 20.9091L12.0161 20.788C12.4083 20.2836 12.3726 19.5543 11.9091 19.0909L5.10483 12.2857H20L20.1499 12.2771C20.7894 12.2028 21.2857 11.6594 21.2857 11C21.2857 10.2899 20.7101 9.71429 20 9.71429H5.10483L11.9091 2.90915L12.0161 2.78802C12.4083 2.28365 12.3726 1.55435 11.9091 1.09087Z" fill="#4D4D4D"/>
</svg>
