<svg width="19" height="20" viewBox="0 0 19 20" fill="none" xmlns="http://www.w3.org/2000/svg">
<path fill-rule="evenodd" clip-rule="evenodd" d="M11.0562 1.35082C11.101 0.992918 10.9044 0.648363 10.5735 0.504738C10.2427 0.361113 9.85674 0.452805 9.62583 0.729896L0.87583 11.2299C0.674003 11.4721 0.630497 11.8092 0.764218 12.0947C0.89794 12.3802 1.18475 12.5625 1.50001 12.5625H8.45462L7.69378 18.6493C7.64905 19.0072 7.84562 19.3517 8.17648 19.4954C8.50734 19.639 8.89328 19.5473 9.12419 19.2702L17.8742 8.7702C18.076 8.528 18.1195 8.19092 17.9858 7.90542C17.8521 7.61992 17.5653 7.43755 17.25 7.43755H10.2954L11.0562 1.35082Z" fill="white"/>
</svg>
