<svg width="21" height="24" viewBox="0 0 21 24" fill="none" xmlns="http://www.w3.org/2000/svg">
<path fill-rule="evenodd" clip-rule="evenodd" d="M12.4674 1.62095C12.5211 1.19147 12.2852 0.777999 11.8882 0.605649C11.4912 0.433299 11.0281 0.54333 10.751 0.875838L0.25096 13.4758C0.00876679 13.7665 -0.0434397 14.171 0.117026 14.5136C0.277491 14.8562 0.621658 15.075 0.999975 15.075H9.34551L8.4325 22.3791C8.37882 22.8086 8.6147 23.222 9.01174 23.3944C9.40877 23.5667 9.8719 23.4567 10.149 23.1242L20.649 10.5242C20.8912 10.2336 20.9434 9.82907 20.7829 9.48647C20.6225 9.14387 20.2783 8.92502 19.9 8.92502H11.5544L12.4674 1.62095Z" fill="#4D4D4D"/>
</svg>
