<svg width="24" height="19" viewBox="0 0 24 19" fill="none" xmlns="http://www.w3.org/2000/svg">
<path fill-rule="evenodd" clip-rule="evenodd" d="M2.25693 2.73669C2.25693 1.61186 3.1688 0.699997 4.29363 0.699997H19.7065C20.8313 0.699997 21.7432 1.61186 21.7432 2.73669V16.457H23.0092C23.5564 16.457 24 16.9006 24 17.4478C24 17.995 23.5564 18.4386 23.0092 18.4386H0.990826C0.443608 18.4386 0 17.995 0 17.4478C0 16.9006 0.443608 16.457 0.990826 16.457H2.25693V2.73669ZM4.12849 16.457H19.8716V2.73669C19.8716 2.64549 19.7977 2.57156 19.7065 2.57156H4.29363C4.20243 2.57156 4.12849 2.64549 4.12849 2.73669V16.457ZM10.2087 6.36197C10.4628 6.21412 10.7764 6.21259 11.032 6.35794L15.4264 8.85703C15.6845 9.0038 15.8439 9.27785 15.8439 9.57477C15.8439 9.87168 15.6845 10.1457 15.4264 10.2925L11.032 12.7916C10.7764 12.9369 10.4628 12.9354 10.2087 12.7876C9.95452 12.6397 9.79816 12.3679 9.79816 12.0738V7.07568C9.79816 6.78166 9.95452 6.50981 10.2087 6.36197ZM11.4495 10.6544L13.348 9.57477L11.4495 8.49512V10.6544Z" fill="#4D4D4D"/>
</svg>
