<svg width="24" height="20" viewBox="0 0 24 20" fill="none" xmlns="http://www.w3.org/2000/svg">
<path fill-rule="evenodd" clip-rule="evenodd" d="M3.0002 1.79739C2.42343 1.79739 1.8002 2.35539 1.8002 3.24739V16.7474C1.8002 17.6394 2.42343 18.1974 3.0002 18.1974H21.0002C21.577 18.1974 22.2002 17.6394 22.2002 16.7474V13.8474H17.0003C14.874 13.8474 13.1503 12.1237 13.1503 9.99739C13.1503 7.8711 14.874 6.14739 17.0003 6.14739H22.2002V3.24739C22.2002 2.35539 21.577 1.79739 21.0002 1.79739H3.0002ZM23.8002 6.14739V3.24739C23.8002 1.6541 22.6326 0.197388 21.0002 0.197388H3.0002C1.36782 0.197388 0.200195 1.6541 0.200195 3.24739V16.7474C0.200195 18.3407 1.36782 19.7974 3.0002 19.7974H21.0002C22.6326 19.7974 23.8002 18.3407 23.8002 16.7474V13.8474H23.8503V6.14739H23.8002ZM16.0002 9.94739C16.0002 9.47795 16.3808 9.09739 16.8502 9.09739H18.1502C18.6197 9.09739 19.0002 9.47795 19.0002 9.94739C19.0002 10.4168 18.6197 10.7974 18.1502 10.7974H16.8502C16.3808 10.7974 16.0002 10.4168 16.0002 9.94739ZM14.8503 9.99739C14.8503 8.80998 15.8129 7.84739 17.0003 7.84739H22.1503V12.1474H17.0003C15.8129 12.1474 14.8503 11.1848 14.8503 9.99739Z" fill="white"/>
</svg>
