<svg width="24" height="20" viewBox="0 0 24 20" fill="none" xmlns="http://www.w3.org/2000/svg">
<path fill-rule="evenodd" clip-rule="evenodd" d="M2.99995 1.79743C2.42319 1.79743 1.79995 2.35544 1.79995 3.24743V16.7474C1.79995 17.6394 2.42319 18.1974 2.99995 18.1974H21C21.5767 18.1974 22.2 17.6394 22.2 16.7474V13.8474H17C14.8737 13.8474 13.15 12.1237 13.15 9.99744C13.15 7.87114 14.8737 6.14744 17 6.14744H22.2V3.24743C22.2 2.35544 21.5767 1.79743 21 1.79743H2.99995ZM23.7999 6.14744V3.24743C23.7999 1.65415 22.6323 0.197433 21 0.197433H2.99995C1.36758 0.197433 0.199951 1.65415 0.199951 3.24743V16.7474C0.199951 18.3407 1.36758 19.7974 2.99995 19.7974H21C22.6323 19.7974 23.7999 18.3407 23.7999 16.7474V13.8474H23.85V6.14744H23.7999ZM16 9.94744C16 9.47799 16.3806 9.09743 16.85 9.09743H18.15C18.6194 9.09743 19 9.47799 19 9.94744C19 10.4169 18.6194 10.7974 18.15 10.7974H16.85C16.3806 10.7974 16 10.4169 16 9.94744ZM14.85 9.99744C14.85 8.81003 15.8126 7.84744 17 7.84744H22.15V12.1474H17C15.8126 12.1474 14.85 11.1849 14.85 9.99744Z" fill="#4D4D4D"/>
</svg>
